# AST/ASF file generated using VICON BodyLanguage
# -----------------------------------------------
:version 1.10
:name VICON
:units
  mass 1.0
  length 0.45
  angle deg
:documentation
   .ast/.asf automatically generated from VICON data using
   VICON BodyBuilder and BodyLanguage model FoxedUp or BRILLIANT.MOD
:root
   order TX TY TZ RX RY RZ
   axis XYZ
   position 0 0 0  
   orientation 0 0 0 
:bonedata
  begin
     id 1 
     name lhipjoint
     direction 0.57768 -0.667037 0.470475 
     length 2.36008 
     axis 0 0 0  XYZ
  end
  begin
     id 2 
     name lfemur
     direction 0.34202 -0.939693 0  
     length 6.97235  
     axis 0 0 20  XYZ
    dof rx ry rz
    limits (-160.0 20.0)
           (-70.0 70.0)
           (-60.0 70.0)
  end
  begin
     id 3 
     name ltibia
     direction 0.34202 -0.939693 0   
     length 6.93428   
     axis 0 0 20   XYZ
    dof rx
    limits (-10.0 170.0)
  end
  begin
     id 4 
     name lfoot
     direction 0.133018 -0.365463 0.921272   
     length 2.18603   
     axis -90 7.62852e-016 20   XYZ
    dof rx rz
    limits (-45.0 90.0)
           (-70.0 20.0)
  end
  begin
     id 5 
     name ltoes
     direction 1.53519e-011 -4.22055e-011 1   
     length 1.07924   
     axis -90 7.62852e-016 20   XYZ
    dof rx
    limits (-90.0 20.0)
  end
  begin
     id 6 
     name rhipjoint
     direction -0.577712 -0.667019 0.470462   
     length 2.36015  
     axis 0 0 0  XYZ 
  end
  begin
     id 7 
     name rfemur
     direction -0.34202 -0.939693 0   
     length 6.71195   
     axis 0 0 -20   XYZ
    dof rx ry rz
    limits (-160.0 20.0)
           (-70.0 70.0)
           (-70.0 60.0)
  end
  begin
     id 8 
     name rtibia
     direction -0.34202 -0.939693 0   
     length 7.04592   
     axis 0 0 -20   XYZ
    dof rx
    limits (-10.0 170.0)
 end
 begin
     id 9 
     name rfoot
     direction -0.113796 -0.312651 0.943027   
     length 2.03846  
     axis -90 -7.62852e-016 -20   XYZ
    dof rx rz
    limits (-45.0 90.0)
           (-20.0 70.0)
  end
  begin
     id 10 
     name rtoes
     direction -1.53586e-011 -4.218e-011 1   
     length 1.01562   
     axis -90 -7.62852e-016 -20   XYZ
    dof rx
    limits (-90.0 20.0)
  end
  begin
     id 11 
     name lowerback
     direction -0.0417299 0.991937 -0.119667   
     length 2.05257   
     axis 0 0 0   XYZ
    dof rx ry rz
    limits (-20.0 45.0)
           (-30.0 30.0)
           (-30.0 30.0)
  end
  begin
     id 12 
     name upperback
     direction -0.00017666 0.999999 0.00105178   
     length 2.05693   
     axis 0 0 0   XYZ
    dof rx ry rz
    limits (-20.0 45.0)
           (-30.0 30.0)
           (-30.0 30.0)
  end
  begin
     id 13 
     name thorax
     direction 0.0185169 0.998203 0.0569866   
     length 2.0932   
     axis 0 0 0   XYZ
    dof rx ry rz
    limits (-20.0 45.0)
           (-30.0 30.0)
           (-30.0 30.0)
  end
  begin
     id 14 
     name lowerneck
     direction -0.0212406 0.982645 0.184277   
     length 1.72509   
     axis 0 0 0   XYZ
    dof rx ry rz
    limits (-20.0 45.0)
           (-30.0 30.0)
           (-30.0 30.0)
  end
  begin
     id 15 
     name upperneck
     direction 0.00528579 0.965323 -0.261004   
     length 1.76294   
     axis 0 0 0   XYZ
    dof rx ry rz
    limits (-20.0 45.0)
           (-30.0 30.0)
           (-30.0 30.0)
  end
  begin
     id 16
     name head
     direction 0.00695421 0.994078 -0.108445  
     length 1.78678  
     axis 0 0 0   XYZ
    dof rx ry rz
    limits (-20.0 45.0)
           (-30.0 30.0)
           (-30.0 30.0)
  end
  begin
     id 17 
     name lclavicle
     direction 0.97277 0.211305 -0.095232  
     length 3.84823  
     axis 0 0 0   XYZ
    dof ry rz
    limits (-20.0 10.0)
           (0.0 20.0)
  end
  begin
     id 18 
     name lhumerus
     direction 1 -4.48957e-011 -1.98313e-027   
     length 4.97185   
     axis 180 -30 -90   XYZ
    dof rx ry rz
    limits (-60.0 90.0)
           (-90.0 90.0)
           (-90.0 90.0)
  end
  begin
     id 19
     name lradius
     direction 1 -4.4898e-011 7.31063e-027   
     length 3.35811   
     axis 180 -30 -90   XYZ
    dof rx
    limits (-10.0 170.0)
  end
  begin
     id 20
     name lwrist
     direction 1 -4.48938e-011 9.95048e-027   
     length 1.67905   
     axis -8.75986e-015 90 90   XYZ
    dof ry
    limits (-180.0 0.0)
 end
  begin
     id 21 
     name lhand
     direction 1 -4.4901e-011 1.9901e-026   
     length 0.622776   
     axis -1.26985e-014 90 90   XYZ
    dof rx rz
    limits (-90.0 90.0)
           (-45.0 45.0)
  end
  begin
     id 22 
     name lfingers
     direction 1 -4.48961e-011 3.98019e-026   
     length 0.502098   
     axis -2.5397e-014 90 90   XYZ
    dof rx
    limits (0.0 90.0)
  end
  begin
     id 23
     name lthumb
     direction 0.707107 -6.34933e-011 0.707107   
     length 0.720915   
     axis -90 45 2.85299e-015   XYZ
    dof rx rz
    limits (-45.0 45.0)
           (-45.0 45.0)
  end
  begin
     id 24 
     name rclavicle
     direction -0.990867 0.133739 -0.0172226   
     length 3.78845  
     axis 0 0 0   XYZ 
    dof ry rz
    limits (-10.0 20.0)
           (-20.0 0.0)
  end
  begin
     id 25 
     name rhumerus
     direction -1 -4.48972e-011 -1.99267e-027  
     length 4.96493   
     axis 180 30 90   XYZ
    dof rx ry rz
    limits (-90.0 60.0)
           (-90.0 90.0)
           (-90.0 90.0)
  end
  begin
     id 26 
     name rradius
     direction -1 -4.48969e-011 8.96093e-027   
     length 3.34929   
     axis 180 30 90   XYZ
    dof rx
    limits (-10.0 170.0)
  end
  begin
     id 27 
     name rwrist
     direction -1 -4.48953e-011 9.95048e-027   
     length 1.67464   
     axis -8.75986e-015 -90 -90   XYZ
    dof ry
    limits (-180.0 0.0)
  end
  begin
     id 28
     name rhand
     direction -1 -4.49001e-011 1.9901e-026   
     length 0.638041   
     axis -1.26985e-014 -90 -90   XYZ
    dof rx rz
    limits (-90.0 90.0)
           (-45.0 45.0)
  end
  begin
     id 29
     name rfingers
     direction -1 -4.48967e-011 3.98019e-026   
     length 0.514405   
     axis -2.5397e-014 -90 -90   XYZ
    dof rx
    limits (0.0 90.0)
  end
  begin
     id 30
     name rthumb
     direction -0.707107 -6.34904e-011 0.707107   
     length 0.738586   
     axis -90 -45 -2.85299e-015   XYZ
    dof rx rz
    limits (-45.0 45.0)
           (-45.0 45.0)
  end
:hierarchy
  begin
    root lhipjoint rhipjoint lowerback
    lhipjoint lfemur
    lfemur ltibia
    ltibia lfoot
    lfoot ltoes
    rhipjoint rfemur
    rfemur rtibia
    rtibia rfoot
    rfoot rtoes
    lowerback upperback
    upperback thorax
    thorax lowerneck lclavicle rclavicle
    lowerneck upperneck
    upperneck head
    lclavicle lhumerus
    lhumerus lradius
    lradius lwrist
    lwrist lhand lthumb
    lhand lfingers
    rclavicle rhumerus
    rhumerus rradius
    rradius rwrist
    rwrist rhand rthumb
    rhand rfingers
  end

#!OML:ASF E:\Mandelcareful walks\Project 1\Capture day 1\Session 1\Subject1.ASF
:FULLY-SPECIFIED
:DEGREES
64
root -3.87626 16.8056 -0.323062 136.51 79.3431 132.234
lowerback -8.25937 1.9521 -8.88609
upperback 1.94685 3.73276 -1.86272
thorax 6.27836 1.55562 3.51137
lowerneck -7.87137 17.6561 16.2865
upperneck 27.264 27.022 -9.72135
head 14.217 12.9506 -1.58095
rclavicle -4.16205e-015 2.23136e-014
rhumerus -32.1277 -11.9865 -82.2512
rradius 25.4159
rwrist -4.83539
rhand -10.1587 -30.0224
rfingers 7.12502
rthumb 15.8308 -59.3952
lclavicle -4.16205e-015 2.23136e-014
lhumerus -24.25 2.3784 89.647
lradius 24.4647
lwrist 5.96984
lhand -19.6669 -10.242
lfingers 7.12502
lthumb 6.66142 19.6332
rfemur 0.265437 2.19924 4.23069
rtibia 14.544
rfoot -21.1558 -27.748
rtoes 1.1142
lfemur -0.843229 -6.07725 -23.9586
ltibia 14.5302
lfoot -19.13 22.3309
ltoes -1.45921
65
root -3.87774 16.8047 -0.321605 137.083 79.1839 132.787
lowerback -8.22509 1.97442 -8.91839
upperback 2.03382 3.7697 -1.87024
thorax 6.3464 1.56748 3.52617
lowerneck -7.97808 17.765 16.1861
upperneck 27.1174 27.2088 -9.87559
head 14.2158 12.9996 -1.57218
rclavicle -2.88486e-014 4.26393e-014
rhumerus -31.9462 -11.4097 -82.6166
rradius 25.7917
rwrist -5.46964
rhand -10.299 -29.8273
rfingers 7.12502
rthumb 15.6957 -59.2107
lclavicle -2.88486e-014 4.26393e-014
lhumerus -24.042 3.12978 89.4531
lradius 24.1485
lwrist 5.17759
lhand -19.5462 -10.3931
lfingers 7.12502
lthumb 6.77791 19.4785
rfemur 0.322425 2.32739 4.22909
rtibia 14.5066
rfoot -21.3411 -28.0451
rtoes 0.927195
lfemur -0.912129 -6.11553 -23.9733
ltibia 14.5568
lfoot -19.1608 22.2065
ltoes -1.33567
66
root -3.88015 16.8059 -0.318982 138.138 79.0222 133.763
lowerback -8.20757 1.95511 -8.916
upperback 2.1128 3.74473 -1.8358
thorax 6.422 1.54868 3.55926
lowerneck -8.22896 17.89 15.9326
upperneck 26.9571 27.3827 -9.95595
head 14.1957 13.028 -1.51066
rclavicle 6.76054e-014 -2.68359e-014
rhumerus -31.8066 -10.5693 -83.0462
rradius 26.5114
rwrist -6.33203
rhand -10.3449 -30.0547
rfingers 7.12502
rthumb 15.6515 -59.4416
lclavicle 6.76054e-014 -2.68359e-014
lhumerus -23.8549 3.63781 89.37
lradius 23.8799
lwrist 4.8794
lhand -19.6638 -9.78667
lfingers 7.12502
lthumb 6.6644 20.0885
rfemur 0.329991 2.42089 4.29666
rtibia 14.4625
rfoot -21.5916 -28.2884
rtoes 1.32889
lfemur -1.0624 -6.13989 -23.9079
ltibia 14.5898
lfoot -19.0131 22.0439
ltoes -1.23627
67
root -3.87926 16.8079 -0.316867 139.018 78.9597 134.579
lowerback -8.20346 2.00783 -8.83623
upperback 2.04899 3.80305 -1.86205
thorax 6.34999 1.58615 3.49258
lowerneck -8.06104 17.852 16.0056
upperneck 26.779 27.3335 -10.0522
head 14.1075 13.0195 -1.58674
rclavicle 4.57329e-014 -8.74653e-015
rhumerus -31.9503 -10.0671 -83.4313
rradius 27.4154
rwrist -6.90917
rhand -9.73659 -31.761
rfingers 7.12502
rthumb 16.2373 -61.1011
lclavicle 4.57329e-014 -8.74653e-015
lhumerus -24.1216 3.52376 89.2601
lradius 23.7312
lwrist 5.1075
lhand -19.8364 -9.41877
lfingers 7.12502
lthumb 6.49779 20.4616
rfemur 0.322936 2.52459 4.41244
rtibia 14.468
rfoot -21.7577 -28.417
rtoes 1.91056
lfemur -1.14982 -6.22201 -23.8124
ltibia 14.5879
lfoot -18.844 22.015
ltoes -1.55132
68
root -3.87976 16.8051 -0.315182 139.369 78.9223 134.91
lowerback -8.20386 2.0172 -8.81819
upperback 2.07449 3.81546 -1.86117
thorax 6.37701 1.59099 3.48569
lowerneck -8.06773 17.914 15.9011
upperneck 26.6374 27.3883 -10.019
head 14.0316 13.0384 -1.55534
rclavicle 3.01221e-014 1.39149e-015
rhumerus -31.7737 -9.79913 -83.6117
rradius 27.557
rwrist -7.10606
rhand -9.67536 -31.222
rfingers 7.12502
rthumb 16.2962 -60.5572
lclavicle 3.01221e-014 1.39149e-015
lhumerus -24.191 3.97091 89.0357
lradius 23.3242
lwrist 4.90479
lhand -19.7114 -9.9644
lfingers 7.12502
lthumb 6.61847 19.9122
rfemur 0.334724 2.61337 4.46083
rtibia 14.4727
rfoot -21.7649 -28.5169
rtoes 1.91197
lfemur -1.20183 -6.29369 -23.7791
ltibia 14.5912
lfoot -18.8241 22.0486
ltoes -1.9106
69
root -3.88129 16.8025 -0.314428 139.561 78.8675 135.107
lowerback -8.19752 2.01209 -8.81555
upperback 2.14389 3.8117 -1.84659
thorax 6.44751 1.58375 3.50062
lowerneck -8.17177 17.9821 15.7191
upperneck 26.5632 27.4466 -9.93543
head 13.9825 13.0498 -1.48586
rclavicle 6.10642e-015 -6.49032e-014
rhumerus -31.5654 -9.00633 -84.0522
rradius 27.9646
rwrist -8.17187
rhand -10.6469 -30.9572
rfingers 7.12502
rthumb 15.3606 -60.3666
lclavicle 6.10642e-015 -6.49032e-014
lhumerus -24.1238 4.72949 88.7589
lradius 22.6944
lwrist 4.42791
lhand -19.491 -11.0612
lfingers 7.12502
lthumb 6.83117 18.8086
rfemur 0.3558 2.53502 4.449
rtibia 14.4618
rfoot -21.7921 -28.4693
rtoes 1.74793
lfemur -1.21203 -6.30813 -23.7812
ltibia 14.6155
lfoot -18.9082 22.0026
ltoes -1.43593
70
root -3.88327 16.8025 -0.314248 139.655 78.8018 135.17
lowerback -8.16654 2.02386 -8.81276
upperback 2.16554 3.82546 -1.84856
thorax 6.4516 1.59002 3.49757
lowerneck -8.28325 17.9511 15.5591
upperneck 26.5778 27.3684 -9.83089
head 13.9525 13.0069 -1.44112
rclavicle -3.5539e-014 1.32192e-014
rhumerus -31.5207 -8.45698 -84.3429
rradius 28.5782
rwrist -8.78758
rhand -10.7942 -30.882
rfingers 7.12502
rthumb 15.2187 -60.3023
lclavicle -3.5539e-014 1.32192e-014
lhumerus -24.0684 5.63182 88.4221
lradius 21.9934
lwrist 3.50777
lhand -19.2759 -11.5541
lfingers 7.12502
lthumb 7.03888 18.3089
rfemur 0.305655 2.31907 4.38151
rtibia 14.4908
rfoot -21.7461 -28.2926
rtoes 1.53207
lfemur -1.22896 -6.36055 -23.8213
ltibia 14.5969
lfoot -18.9397 22.0176
ltoes -1.21041
71
root -3.88556 16.8057 -0.312964 139.798 78.7914 135.236
lowerback -8.13623 2.05424 -8.76135
upperback 2.11973 3.85568 -1.87555
thorax 6.38605 1.6119 3.44151
lowerneck -8.41201 17.8076 15.4957
upperneck 26.7359 27.1216 -9.67718
head 13.9699 12.9021 -1.4232
rclavicle 3.47873e-014 4.77083e-015
rhumerus -31.5584 -8.15606 -84.5676
rradius 29.2093
rwrist -9.17699
rhand -10.3297 -30.9863
rfingers 7.12502
rthumb 15.6661 -60.372
lclavicle 3.47873e-014 4.77083e-015
lhumerus -24.1034 6.47041 88.0281
lradius 21.3997
lwrist 2.3565
lhand -19.1777 -10.5523
lfingers 7.12502
lthumb 7.13362 19.3075
rfemur 0.207344 2.23001 4.37372
rtibia 14.5254
rfoot -21.5698 -28.2638
rtoes 2.07915
lfemur -1.2856 -6.40794 -23.814
ltibia 14.5504
lfoot -18.9555 22.0736
ltoes -1.57096
72
root -3.88619 16.8105 -0.310875 139.737 78.7999 135.119
lowerback -8.13921 2.08297 -8.75004
upperback 2.08013 3.89316 -1.91013
thorax 6.34388 1.63478 3.40242
lowerneck -8.64159 17.5763 15.4088
upperneck 27.0948 26.7488 -9.42597
head 14.0545 12.7432 -1.38198
rclavicle 4.50993e-015 1.72943e-014
rhumerus -31.5983 -7.9766 -84.7766
rradius 29.839
rwrist -9.44612
rhand -9.88793 -31.081
rfingers 7.12502
rthumb 16.0916 -60.4328
lclavicle 4.50993e-015 1.72943e-014
lhumerus -24.1706 7.33829 87.5938
lradius 20.7433
lwrist 1.36825
lhand -19.2834 -9.90581
lfingers 7.12502
lthumb 7.03157 19.9574
rfemur 0.155311 2.25554 4.36811
rtibia 14.515
rfoot -21.4274 -28.349
rtoes 1.90283
lfemur -1.32903 -6.39331 -23.8184
ltibia 14.5293
lfoot -18.9345 22.0761
ltoes -1.57342
73
root -3.88924 16.8125 -0.30591 140.086 78.8719 135.437
lowerback -8.11888 2.10999 -8.68471
upperback 2.02103 3.91347 -1.89447
thorax 6.26881 1.65155 3.38244
lowerneck -9.0063 17.2238 15.1316
upperneck 27.6751 26.1851 -8.96316
head 14.1677 12.5011 -1.27053
rclavicle 3.76883e-014 -1.3418e-015
rhumerus -31.6457 -7.79193 -84.9605
rradius 30.487
rwrist -9.781
rhand -9.7995 -31.3785
rfingers 7.12502
rthumb 16.1767 -60.7234
lclavicle 3.76883e-014 -1.3418e-015
lhumerus -24.2316 8.66264 87.0016
lradius 19.722
lwrist 0.0854152
lhand -19.2743 -11.1668
lfingers 7.12502
lthumb 7.04033 18.6961
rfemur 0.123583 2.47761 4.52411
rtibia 14.465
rfoot -21.6054 -28.5242
rtoes 2.01555
lfemur -1.4142 -6.42376 -23.6936
ltibia 14.5212
lfoot -18.7994 22.1174
ltoes -1.54671
74
root -3.89502 16.8123 -0.298935 140.882 79.0441 136.253
lowerback -8.03649 2.10696 -8.51314
upperback 1.97777 3.86813 -1.78794
thorax 6.18222 1.63714 3.38854
lowerneck -9.64622 16.7494 14.5467
upperneck 28.5326 25.4551 -8.31571
head 14.3604 12.165 -1.0594
rclavicle 3.19298e-014 -1.13307e-014
rhumerus -31.6232 -7.33016 -85.1672
rradius 31.0708
rwrist -10.2884
rhand -9.69651 -31.7751
rfingers 7.12502
rthumb 16.2759 -61.112
lclavicle 3.19298e-014 -1.13307e-014
lhumerus -24.2807 9.93069 86.5284
lradius 18.9876
lwrist -1.14007
lhand -19.2107 -10.9438
lfingers 7.12502
lthumb 7.10177 18.9171
rfemur 0.109637 2.86191 4.86542
rtibia 14.4317
rfoot -21.8121 -28.8028
rtoes 2.80498
lfemur -1.43589 -6.47999 -23.4086
ltibia 14.4748
lfoot -18.7611 22.1647
ltoes -1.38396
75
root -3.9037 16.8133 -0.293641 141.21 79.2691 136.642
lowerback -7.88306 2.10784 -8.34272
upperback 1.93777 3.82085 -1.67399
thorax 6.0582 1.6231 3.39906
lowerneck -10.6862 16.0334 13.6247
upperneck 30.0964 24.3611 -7.15638
head 14.78 11.6754 -0.637365
rclavicle -4.9075e-016 -1.00386e-014
rhumerus -31.6209 -6.72546 -85.4012
rradius 31.5418
rwrist -10.7803
rhand -9.43153 -32.076
rfingers 7.12502
rthumb 16.531 -61.3918
lclavicle -4.9075e-016 -1.00386e-014
lhumerus -24.4121 11.292 86.0068
lradius 18.322
lwrist -2.44249
lhand -19.3822 -10.9919
lfingers 7.12502
lthumb 6.93619 18.8745
rfemur 0.0710489 3.02663 5.11517
rtibia 14.4102
rfoot -21.6176 -28.8816
rtoes 2.87602
lfemur -1.36789 -6.50121 -23.1824
ltibia 14.4153
lfoot -18.8824 22.2736
ltoes -1.1763
76
root -3.91603 16.8171 -0.289431 141.088 79.4604 136.57
lowerback -7.69444 2.11871 -8.24611
upperback 1.84102 3.79167 -1.60072
thorax 5.8504 1.62166 3.40632
lowerneck -11.7801 15.1418 12.3746
upperneck 31.8197 23.0409 -5.79161
head 15.2186 11.0922 -0.118834
rclavicle -7.74639e-015 1.22253e-014
rhumerus -31.6373 -6.18813 -85.5983
rradius 31.866
rwrist -11.1975
rhand -9.15848 -32.6738
rfingers 7.12502
rthumb 16.7939 -61.9675
lclavicle -7.74639e-015 1.22253e-014
lhumerus -24.7534 12.3082 85.5344
lradius 17.9392
lwrist -3.38308
lhand -19.6718 -10.8576
lfingers 7.12502
lthumb 6.65666 19.0178
rfemur -0.0250655 2.791 5.19708
rtibia 14.3886
rfoot -21.1968 -28.5991
rtoes 1.92503
lfemur -1.31662 -6.49947 -23.0743
ltibia 14.3575
lfoot -18.9249 22.4398
ltoes -1.59624
